# xmcd
#
# Track frame offsets:
# 150
# 16704
# 35503
# 58320
# 69974
# 92753
# 122013
# 135118
# 158898
# 171764
# 184773
# 203445
# 221157
# 238950
# 267579
# 285538
# 305288
# 320986
# 338697
#
# Disc length: 4726 seconds
#
#
# Revision: 0
# Processed by: cddbd v1.5.1PL2 Copyright (c) Steve Scherf et al.
# Submitted via: FreeRIP 2.944 
#
DISCID=13127413
DTITLE=The Blues Band - The Blues Band Box - Disk 3
DYEAR=2005
DGENRE=Blues
TTITLE0=Killing Me By Degrees
TTITLE1=The Duisberg Blues
TTITLE2=Long Time Gone
TTITLE3=I'll Go Crazy
TTITLE4=Temperature - Fever
TTITLE5=How Can A Poor Man Stand Such Times And Live
TTITLE6=Mean Old World
TTITLE7=You Shook Me
TTITLE8=Jump Up And Shout
TTITLE9=Room And Board
TTITLE10=T-Nicey Mama
TTITLE11=Sitting On Top Of The World
TTITLE12=D-Day Blues
TTITLE13=I Can't Stand The Rain
TTITLE14=Stranger Blues
TTITLE15=Sweet Temptation
TTITLE16=Jitterbug Swing
TTITLE17=Told No Lies
TTITLE18=Too Young To Know
EXTD=BGO Records\nBGOBBCD1-3
EXTT0=McGuinness,Gallagher
EXTT1=Kelly
EXTT2=McGuinness,Gallagher
EXTT3=Brown
EXTT4=Jacobs,Cohen - Cooley,Davenport
EXTT5=Blind Alfred Reed
EXTT6=Walker
EXTT7=Dixon,Lenoir
EXTT8=Johnson
EXTT9=Jones
EXTT10=Trad Arr Jones,Fletcher,Kelly,McGuinness,Townsend
EXTT11=Carter,Jacobs
EXTT12=Kelly
EXTT13=Peebles,Bryant,Millar
EXTT14=Trad Arr Jones
EXTT15=Gallagher,McGuinness
EXTT16=White
EXTT17=Fletcher
EXTT18=Morganfield
PLAYORDER=
